<svg xmlns="http://www.w3.org/2000/svg" xmlns:xlink="http://www.w3.org/1999/xlink" width="1192" height="380pt" viewBox="0 0 893.72 380"><g id="graph0" class="graph" transform="scale(1 1) rotate(0) translate(4 376)"><title>G</title><polygon fill="#fff" stroke="transparent" points="-4 4 -4 -376 889.725 -376 889.725 4 -4 4"/><g id="clust1" class="cluster"><title>cluster_block</title><polygon fill="none" stroke="#000" points="8 -8 8 -364 877.725 -364 877.725 -8 8 -8"/><text x="442.862" y="-347.4" fill="#000" font-family="Times,serif" font-size="14" text-anchor="middle">block</text></g><g id="clust2" class="cluster"><title>cluster_availableheader</title><polygon fill="none" stroke="#000" points="384.33 -48 384.33 -139 517.269 -139 517.269 -48 384.33 -48"/><text x="450.799" y="-122.4" fill="#000" font-family="Times,serif" font-size="14" text-anchor="middle">availableDataHeader</text></g><g id="clust3" class="cluster"><title>cluster_body</title><polygon fill="none" stroke="#000" points="687.588 -60 687.588 -201 869.725 -201 869.725 -60 687.588 -60"/><text x="778.656" y="-184.4" fill="#000" font-family="Times,serif" font-size="14" text-anchor="middle">availableData</text></g><g id="clust4" class="cluster"><title>cluster_lastcommit</title><polygon fill="none" stroke="#000" points="401.63 -159 401.63 -237 498.969 -237 498.969 -159 401.63 -159"/><text x="450.299" y="-220.4" fill="#000" font-family="Times,serif" font-size="14" text-anchor="middle">lastCommit</text></g><g id="clust5" class="cluster"><title>cluster_header</title><polygon fill="none" stroke="#000" points="16 -16 16 -331 237.693 -331 237.693 -16 16 -16"/><text x="126.847" y="-314.4" fill="#000" font-family="Times,serif" font-size="14" text-anchor="middle">header</text></g><g id="node1" class="node"><title>struct4</title><polygon fill="none" stroke="#000" points="405.33 -56.2 405.33 -105.8 495.269 -105.8 495.269 -56.2 405.33 -56.2"/><polyline fill="none" stroke="#000" points="424.83 -56.2 424.83 -105.8"/><text x="460.049" y="-89.2" fill="#000" font-family="Times,serif" font-size="14" text-anchor="middle">rowRoots</text><polyline fill="none" stroke="#000" points="424.83 -81 495.269 -81"/><text x="460.049" y="-64.4" fill="#000" font-family="Times,serif" font-size="14" text-anchor="middle">colRoots</text></g><g id="node2" class="node"><title>struct3</title><polygon fill="none" stroke="#000" points="695.588 -68.4 695.588 -167.6 861.725 -167.6 861.725 -68.4 695.588 -68.4"/><polyline fill="none" stroke="#000" points="715.088 -68.4 715.088 -167.6"/><text x="788.406" y="-151" fill="#000" font-family="Times,serif" font-size="14" text-anchor="middle">transactionData</text><polyline fill="none" stroke="#000" points="715.088 -142.8 861.725 -142.8"/><text x="788.406" y="-126.2" fill="#000" font-family="Times,serif" font-size="14" text-anchor="middle">intermediateStateRoots</text><polyline fill="none" stroke="#000" points="715.088 -118 861.725 -118"/><text x="788.406" y="-101.4" fill="#000" font-family="Times,serif" font-size="14" text-anchor="middle">payForBlobData</text><polyline fill="none" stroke="#000" points="715.088 -93.2 861.725 -93.2"/><text x="788.406" y="-76.6" fill="#000" font-family="Times,serif" font-size="14" text-anchor="middle">messageData</text></g><g id="edge3" class="edge"><title>struct4:f0-&gt;struct3</title><path fill="none" stroke="#000" d="M415.2993,-106C415.2993,-109.3793 655.2117,-109.2556 658.588,-109.4 667.2351,-109.7698 676.2267,-110.245 685.225,-110.7819"/><polygon fill="#000" stroke="#000" points="685.172 -114.285 695.369 -111.412 685.606 -107.299 685.172 -114.285"/><text x="605.928" y="-130" fill="#000" font-family="Times,serif" font-size="14" text-anchor="middle">NMT roots to</text><text x="605.928" y="-113.2" fill="#000" font-family="Times,serif" font-size="14" text-anchor="middle">erasure-coded data</text></g><g id="node3" class="node"><title>struct2</title><polygon fill="none" stroke="#000" points="409.63 -168 409.63 -204 490.969 -204 490.969 -168 409.63 -168"/><text x="450.299" y="-181.9" fill="#000" font-family="Times,serif" font-size="14" text-anchor="middle">lastCommit</text></g><g id="node4" class="node"><title>struct1</title><polygon fill="none" stroke="#000" points="24 -24.6 24 -297.4 229.693 -297.4 229.693 -24.6 24 -24.6"/><text x="126.847" y="-280.8" fill="#000" font-family="Times,serif" font-size="14" text-anchor="middle">version</text><polyline fill="none" stroke="#000" points="24 -272.6 229.693 -272.6"/><text x="126.847" y="-256" fill="#000" font-family="Times,serif" font-size="14" text-anchor="middle">chainID</text><polyline fill="none" stroke="#000" points="24 -247.8 229.693 -247.8"/><text x="126.847" y="-231.2" fill="#000" font-family="Times,serif" font-size="14" text-anchor="middle">height</text><polyline fill="none" stroke="#000" points="24 -223 229.693 -223"/><text x="126.847" y="-206.4" fill="#000" font-family="Times,serif" font-size="14" text-anchor="middle">timestamp</text><polyline fill="none" stroke="#000" points="24 -198.2 229.693 -198.2"/><text x="126.847" y="-181.6" fill="#000" font-family="Times,serif" font-size="14" text-anchor="middle">lastHeaderHash</text><polyline fill="none" stroke="#000" points="24 -173.4 229.693 -173.4"/><text x="126.847" y="-156.8" fill="#000" font-family="Times,serif" font-size="14" text-anchor="middle">lastCommitHash</text><polyline fill="none" stroke="#000" points="24 -148.6 229.693 -148.6"/><text x="126.847" y="-132" fill="#000" font-family="Times,serif" font-size="14" text-anchor="middle">consensusHash</text><polyline fill="none" stroke="#000" points="24 -123.8 229.693 -123.8"/><text x="126.847" y="-107.2" fill="#000" font-family="Times,serif" font-size="14" text-anchor="middle">stateCommitment</text><polyline fill="none" stroke="#000" points="24 -99 229.693 -99"/><text x="126.847" y="-82.4" fill="#000" font-family="Times,serif" font-size="14" text-anchor="middle">availableDataOriginalSharesUsed</text><polyline fill="none" stroke="#000" points="24 -74.2 229.693 -74.2"/><text x="126.847" y="-57.6" fill="#000" font-family="Times,serif" font-size="14" text-anchor="middle">availableDataRoot</text><polyline fill="none" stroke="#000" points="24 -49.4 229.693 -49.4"/><text x="126.847" y="-32.8" fill="#000" font-family="Times,serif" font-size="14" text-anchor="middle">proposerAddress</text></g><g id="edge2" class="edge"><title>struct1:f9-&gt;struct4</title><path fill="none" stroke="#000" d="M229.8465,-62C286.3341,-62 350.6636,-68.2687 395.1892,-73.6047"/><polygon fill="#000" stroke="#000" points="394.87 -77.092 405.221 -74.831 395.719 -70.143 394.87 -77.092"/><text x="307.511" y="-72.2" fill="#000" font-family="Times,serif" font-size="14" text-anchor="middle">Merkle root of</text></g><g id="edge1" class="edge"><title>struct1:f5-&gt;struct2</title><path fill="none" stroke="#000" d="M229.8465,-161C288.2729,-161 354.8579,-169.7769 399.4211,-176.9298"/><polygon fill="#000" stroke="#000" points="398.986 -180.405 409.42 -178.567 400.117 -173.497 398.986 -180.405"/></g></g></svg>