<svg xmlns="http://www.w3.org/2000/svg" xmlns:xlink="http://www.w3.org/1999/xlink" width="1000" height="59pt" viewBox="0 0 750 59"><g id="graph0" class="graph" transform="scale(1 1) rotate(0) translate(4 55)"><title>G</title><polygon fill="#fff" stroke="transparent" points="-4 4 -4 -55 746 -55 746 4 -4 4"/><g id="node1" class="node"><title>share</title><polygon fill="none" stroke="#000" stroke-width="0" points="0 -.5 0 -50.5 742 -50.5 742 -.5 0 -.5"/><text x="8" y="-33.9" fill="#000" font-family="Times,serif" font-size="14" text-anchor="start">0</text><text x="124" y="-33.9" fill="#000" font-family="Times,serif" font-size="14" text-anchor="start">1</text><text x="209" y="-33.9" fill="#000" font-family="Times,serif" font-size="14" text-anchor="start">33</text><text x="269" y="-33.9" fill="#000" font-family="Times,serif" font-size="14" text-anchor="start">34</text><text x="359" y="-33.9" fill="#000" font-family="Times,serif" font-size="14" text-anchor="start">38</text><text x="459" y="-33.9" fill="#000" font-family="Times,serif" font-size="14" text-anchor="start">80</text><text x="513" y="-33.9" fill="#000" font-family="Times,serif" font-size="14" text-anchor="start">81</text><text x="613" y="-33.9" fill="#000" font-family="Times,serif" font-size="14" text-anchor="start">200</text><text x="713" y="-33.9" fill="#000" font-family="Times,serif" font-size="14" text-anchor="start">512</text><polygon fill="none" stroke="#000" points="8 -4.5 8 -30.5 124 -30.5 124 -4.5 8 -4.5"/><text x="12.941" y="-12.9" fill="#000" font-family="Times,serif" font-size="14" text-anchor="start">namespace version</text><polygon fill="none" stroke="#000" points="124 -4.5 124 -30.5 209 -30.5 209 -4.5 124 -4.5"/><text x="128.601" y="-12.9" fill="#000" font-family="Times,serif" font-size="14" text-anchor="start">namespace id</text><polygon fill="none" stroke="#000" points="209 -4.5 209 -30.5 269 -30.5 269 -4.5 209 -4.5"/><text x="213.922" y="-12.9" fill="#000" font-family="Times,serif" font-size="14" text-anchor="start">info byte</text><polygon fill="none" stroke="#000" points="269 -4.5 269 -30.5 359 -30.5 359 -4.5 269 -4.5"/><text x="273.77" y="-12.9" fill="#000" font-family="Times,serif" font-size="14" text-anchor="start">reserved bytes</text><polygon fill="none" stroke="#000" points="359 -4.5 359 -30.5 459 -30.5 459 -4.5 359 -4.5"/><text x="380.617" y="-12.9" fill="#000" font-family="Times,serif" font-size="14" text-anchor="start">end of tx2</text><polygon fill="none" stroke="#000" points="459 -4.5 459 -30.5 513 -30.5 513 -4.5 459 -4.5"/><text x="463.841" y="-12.9" fill="#000" font-family="Times,serif" font-size="14" text-anchor="start">len(tx3)</text><polygon fill="none" stroke="#000" points="513 -4.5 513 -30.5 613 -30.5 613 -4.5 513 -4.5"/><text x="554.055" y="-12.9" fill="#000" font-family="Times,serif" font-size="14" text-anchor="start">tx3</text><polygon fill="none" stroke="#000" points="613 -4.5 613 -30.5 713 -30.5 713 -4.5 613 -4.5"/><text x="626.072" y="-12.9" fill="#000" font-family="Times,serif" font-size="14" text-anchor="start">zero-padding</text></g></g></svg>