<svg xmlns="http://www.w3.org/2000/svg" xmlns:xlink="http://www.w3.org/1999/xlink" width="803pt" height="59pt" viewBox="0 0 803 59"><g id="graph0" class="graph" transform="scale(1 1) rotate(0) translate(4 55)"><title>G</title><polygon fill="#fff" stroke="transparent" points="-4 4 -4 -55 799 -55 799 4 -4 4"/><g id="node1" class="node"><title>share</title><polygon fill="none" stroke="#000" stroke-width="0" points="0 -.5 0 -50.5 795 -50.5 795 -.5 0 -.5"/><text x="8.5" y="-33.9" fill="#000" font-family="Times,serif" font-size="14" text-anchor="start">0</text><text x="124.5" y="-33.9" fill="#000" font-family="Times,serif" font-size="14" text-anchor="start">1</text><text x="209.5" y="-33.9" fill="#000" font-family="Times,serif" font-size="14" text-anchor="start">33</text><text x="269.5" y="-33.9" fill="#000" font-family="Times,serif" font-size="14" text-anchor="start">34</text><text x="368.5" y="-33.9" fill="#000" font-family="Times,serif" font-size="14" text-anchor="start">38</text><text x="458.5" y="-33.9" fill="#000" font-family="Times,serif" font-size="14" text-anchor="start">42</text><text x="512.5" y="-33.9" fill="#000" font-family="Times,serif" font-size="14" text-anchor="start">43</text><text x="612.5" y="-33.9" fill="#000" font-family="Times,serif" font-size="14" text-anchor="start">200</text><text x="666.5" y="-33.9" fill="#000" font-family="Times,serif" font-size="14" text-anchor="start">201</text><text x="766.5" y="-33.9" fill="#000" font-family="Times,serif" font-size="14" text-anchor="start">512</text><polygon fill="none" stroke="#000" points="8.5 -4.5 8.5 -30.5 124.5 -30.5 124.5 -4.5 8.5 -4.5"/><text x="13.441" y="-12.9" fill="#000" font-family="Times,serif" font-size="14" text-anchor="start">namespace version</text><polygon fill="none" stroke="#000" points="124.5 -4.5 124.5 -30.5 209.5 -30.5 209.5 -4.5 124.5 -4.5"/><text x="129.101" y="-12.9" fill="#000" font-family="Times,serif" font-size="14" text-anchor="start">namespace id</text><polygon fill="none" stroke="#000" points="209.5 -4.5 209.5 -30.5 269.5 -30.5 269.5 -4.5 209.5 -4.5"/><text x="214.422" y="-12.9" fill="#000" font-family="Times,serif" font-size="14" text-anchor="start">info byte</text><polygon fill="none" stroke="#000" points="269.5 -4.5 269.5 -30.5 368.5 -30.5 368.5 -4.5 269.5 -4.5"/><text x="274.101" y="-12.9" fill="#000" font-family="Times,serif" font-size="14" text-anchor="start">sequence length</text><polygon fill="none" stroke="#000" points="368.5 -4.5 368.5 -30.5 458.5 -30.5 458.5 -4.5 368.5 -4.5"/><text x="373.27" y="-12.9" fill="#000" font-family="Times,serif" font-size="14" text-anchor="start">reserved bytes</text><polygon fill="none" stroke="#000" points="458.5 -4.5 458.5 -30.5 512.5 -30.5 512.5 -4.5 458.5 -4.5"/><text x="463.341" y="-12.9" fill="#000" font-family="Times,serif" font-size="14" text-anchor="start">len(tx1)</text><polygon fill="none" stroke="#000" points="512.5 -4.5 512.5 -30.5 612.5 -30.5 612.5 -4.5 512.5 -4.5"/><text x="553.555" y="-12.9" fill="#000" font-family="Times,serif" font-size="14" text-anchor="start">tx1</text><polygon fill="none" stroke="#000" points="612.5 -4.5 612.5 -30.5 666.5 -30.5 666.5 -4.5 612.5 -4.5"/><text x="617.341" y="-12.9" fill="#000" font-family="Times,serif" font-size="14" text-anchor="start">len(tx2)</text><polygon fill="none" stroke="#000" points="666.5 -4.5 666.5 -30.5 766.5 -30.5 766.5 -4.5 666.5 -4.5"/><text x="707.555" y="-12.9" fill="#000" font-family="Times,serif" font-size="14" text-anchor="start">tx2</text></g></g></svg>