<svg xmlns="http://www.w3.org/2000/svg" viewBox="-32 -32 192 192" style="background-color:#fff"><rect width="32" height="32" x="0" y="0" fill="#2344CA" stroke="gray"/><rect width="32" height="32" x="32" y="0" fill="#2344CA" stroke="gray"/><rect width="32" height="32" x="64" y="0" fill="#2344CA" stroke="gray"/><rect width="32" height="32" x="96" y="0" fill="#fff" stroke="gray"/><rect width="32" height="32" x="0" y="32" fill="#fff" stroke="gray"/><rect width="32" height="32" x="32" y="32" fill="#fff" stroke="gray"/><rect width="32" height="32" x="64" y="32" fill="#fff" stroke="gray"/><rect width="32" height="32" x="96" y="32" fill="#fff" stroke="gray"/><rect width="32" height="32" x="0" y="64" fill="#fff" stroke="gray"/><rect width="32" height="32" x="32" y="64" fill="#fff" stroke="gray"/><rect width="32" height="32" x="64" y="64" fill="#fff" stroke="gray"/><rect width="32" height="32" x="96" y="64" fill="#fff" stroke="gray"/><rect width="32" height="32" x="0" y="96" fill="#fff" stroke="gray"/><rect width="32" height="32" x="32" y="96" fill="#fff" stroke="gray"/><rect width="32" height="32" x="64" y="96" fill="#fff" stroke="gray"/><rect width="32" height="32" x="96" y="96" fill="#fff" stroke="gray"/><rect width="128" height="128" x="0" y="0" fill="none" stroke="#000" stroke-width="2"/><text x="-12" y="20" font-size="14" text-anchor="middle">r<tspan baseline-shift="sub" font-size="10">1</tspan></text><text x="-12" y="116" font-size="14" text-anchor="middle">r<tspan baseline-shift="sub" font-size="10">k</tspan></text><text x="16" y="-10" font-size="14" text-anchor="middle">c<tspan baseline-shift="sub" font-size="10">1</tspan></text><text x="112" y="-10" font-size="14" text-anchor="middle">c<tspan baseline-shift="sub" font-size="10">k</tspan></text><text x="16" y="20" fill="#FFF" font-size="12" text-anchor="middle">TXs</text><text x="48" y="20" fill="#FFF" font-size="12" text-anchor="middle">ISRs</text><text x="80" y="20" fill="#FFF" font-size="12" text-anchor="middle">PFBs</text></svg>