<svg xmlns="http://www.w3.org/2000/svg" viewBox="-96 -96 384 384" style="background-color:#fff"><rect width="32" height="32" x="0" y="0" fill="#fff" stroke="gray"/><rect width="32" height="32" x="32" y="0" fill="#fff" stroke="gray"/><rect width="32" height="32" x="64" y="0" fill="#fff" stroke="gray"/><rect width="32" height="32" x="96" y="0" fill="#fff" stroke="gray"/><rect width="32" height="32" x="0" y="32" fill="#fff" stroke="gray"/><rect width="32" height="32" x="32" y="32" fill="#fff" stroke="gray"/><rect width="32" height="32" x="64" y="32" fill="#fff" stroke="gray"/><rect width="32" height="32" x="96" y="32" fill="#fff" stroke="gray"/><rect width="32" height="32" x="0" y="64" fill="#fff" stroke="gray"/><rect width="32" height="32" x="32" y="64" fill="#fff" stroke="gray"/><rect width="32" height="32" x="64" y="64" fill="#fff" stroke="gray"/><rect width="32" height="32" x="96" y="64" fill="#fff" stroke="gray"/><rect width="32" height="32" x="0" y="96" fill="#fff" stroke="gray"/><rect width="32" height="32" x="32" y="96" fill="#fff" stroke="gray"/><rect width="32" height="32" x="64" y="96" fill="#fff" stroke="gray"/><rect width="32" height="32" x="96" y="96" fill="#fff" stroke="gray"/><rect width="32" height="32" x="128" y="0" fill="#fff" stroke="gray"/><rect width="32" height="32" x="160" y="0" fill="#fff" stroke="gray"/><rect width="32" height="32" x="192" y="0" fill="#fff" stroke="gray"/><rect width="32" height="32" x="224" y="0" fill="#fff" stroke="gray"/><rect width="32" height="32" x="128" y="32" fill="#fff" stroke="gray"/><rect width="32" height="32" x="160" y="32" fill="#fff" stroke="gray"/><rect width="32" height="32" x="192" y="32" fill="#fff" stroke="gray"/><rect width="32" height="32" x="224" y="32" fill="#fff" stroke="gray"/><rect width="32" height="32" x="128" y="64" fill="#fff" stroke="gray"/><rect width="32" height="32" x="160" y="64" fill="#fff" stroke="gray"/><rect width="32" height="32" x="192" y="64" fill="#fff" stroke="gray"/><rect width="32" height="32" x="224" y="64" fill="#fff" stroke="gray"/><rect width="32" height="32" x="128" y="96" fill="#fff" stroke="gray"/><rect width="32" height="32" x="160" y="96" fill="#fff" stroke="gray"/><rect width="32" height="32" x="192" y="96" fill="#fff" stroke="gray"/><rect width="32" height="32" x="224" y="96" fill="#fff" stroke="gray"/><rect width="32" height="32" x="0" y="128" fill="#fff" stroke="gray"/><rect width="32" height="32" x="32" y="128" fill="#fff" stroke="gray"/><rect width="32" height="32" x="64" y="128" fill="#fff" stroke="gray"/><rect width="32" height="32" x="96" y="128" fill="#fff" stroke="gray"/><rect width="32" height="32" x="0" y="160" fill="#fff" stroke="gray"/><rect width="32" height="32" x="32" y="160" fill="#fff" stroke="gray"/><rect width="32" height="32" x="64" y="160" fill="#fff" stroke="gray"/><rect width="32" height="32" x="96" y="160" fill="#fff" stroke="gray"/><rect width="32" height="32" x="0" y="192" fill="#fff" stroke="gray"/><rect width="32" height="32" x="32" y="192" fill="#fff" stroke="gray"/><rect width="32" height="32" x="64" y="192" fill="#fff" stroke="gray"/><rect width="32" height="32" x="96" y="192" fill="#fff" stroke="gray"/><rect width="32" height="32" x="0" y="224" fill="#fff" stroke="gray"/><rect width="32" height="32" x="32" y="224" fill="#fff" stroke="gray"/><rect width="32" height="32" x="64" y="224" fill="#fff" stroke="gray"/><rect width="32" height="32" x="96" y="224" fill="#fff" stroke="gray"/><rect width="32" height="32" x="128" y="128" fill="#fff" stroke="gray"/><rect width="32" height="32" x="160" y="128" fill="#fff" stroke="gray"/><rect width="32" height="32" x="192" y="128" fill="#fff" stroke="gray"/><rect width="32" height="32" x="224" y="128" fill="#fff" stroke="gray"/><rect width="32" height="32" x="128" y="160" fill="#fff" stroke="gray"/><rect width="32" height="32" x="160" y="160" fill="#fff" stroke="gray"/><rect width="32" height="32" x="192" y="160" fill="#fff" stroke="gray"/><rect width="32" height="32" x="224" y="160" fill="#fff" stroke="gray"/><rect width="32" height="32" x="128" y="192" fill="#fff" stroke="gray"/><rect width="32" height="32" x="160" y="192" fill="#fff" stroke="gray"/><rect width="32" height="32" x="192" y="192" fill="#fff" stroke="gray"/><rect width="32" height="32" x="224" y="192" fill="#fff" stroke="gray"/><rect width="32" height="32" x="128" y="224" fill="#fff" stroke="gray"/><rect width="32" height="32" x="160" y="224" fill="#fff" stroke="gray"/><rect width="32" height="32" x="192" y="224" fill="#fff" stroke="gray"/><rect width="32" height="32" x="224" y="224" fill="#fff" stroke="gray"/><rect width="128" height="128" x="0" y="0" fill="none" stroke="#000" stroke-width="2"/><rect width="128" height="128" x="128" y="0" fill="none" stroke="#000" stroke-width="2"/><rect width="128" height="128" x="0" y="128" fill="none" stroke="#000" stroke-width="2"/><rect width="128" height="128" x="128" y="128" fill="none" stroke="#000" stroke-width="2"/><text x="-12" y="20" font-size="14" text-anchor="middle">r<tspan baseline-shift="sub" font-size="10">1</tspan></text><text x="-12" y="116" font-size="14" text-anchor="middle">r<tspan baseline-shift="sub" font-size="10">k</tspan></text><text x="-12" y="244" font-size="14" text-anchor="middle">r<tspan baseline-shift="sub" font-size="10">2k</tspan></text><text x="16" y="-10" font-size="14" text-anchor="middle">c<tspan baseline-shift="sub" font-size="10">1</tspan></text><text x="112" y="-10" font-size="14" text-anchor="middle">c<tspan baseline-shift="sub" font-size="10">k</tspan></text><text x="240" y="-10" font-size="14" text-anchor="middle">c<tspan baseline-shift="sub" font-size="10">2k</tspan></text><rect width="32" height="32" x="-64" y="0" fill="#B0B0B0" stroke="gray"/><rect width="32" height="32" x="-64" y="32" fill="#B0B0B0" stroke="gray"/><rect width="32" height="32" x="-64" y="64" fill="#B0B0B0" stroke="gray"/><rect width="32" height="32" x="-64" y="96" fill="#B0B0B0" stroke="gray"/><rect width="32" height="32" x="-64" y="128" fill="#B0B0B0" stroke="gray"/><rect width="32" height="32" x="-64" y="160" fill="#B0B0B0" stroke="gray"/><rect width="32" height="32" x="-64" y="192" fill="#B0B0B0" stroke="gray"/><rect width="32" height="32" x="-64" y="224" fill="#B0B0B0" stroke="gray"/><rect width="32" height="32" x="0" y="-64" fill="#B0B0B0" stroke="gray"/><rect width="32" height="32" x="32" y="-64" fill="#B0B0B0" stroke="gray"/><rect width="32" height="32" x="64" y="-64" fill="#B0B0B0" stroke="gray"/><rect width="32" height="32" x="96" y="-64" fill="#B0B0B0" stroke="gray"/><rect width="32" height="32" x="128" y="-64" fill="#B0B0B0" stroke="gray"/><rect width="32" height="32" x="160" y="-64" fill="#B0B0B0" stroke="gray"/><rect width="32" height="32" x="192" y="-64" fill="#B0B0B0" stroke="gray"/><rect width="32" height="32" x="224" y="-64" fill="#B0B0B0" stroke="gray"/><defs><marker id="arrowhead" markerWidth="32" marketHeight="32" orient="auto" refX="0" refY="16" viewBox="0 0 32 32"><polygon fill="#2344CA" stroke-width="0" points="0 0 32 16 0 32"/></marker></defs><rect width="80" height="32" x="24" y="48" fill="#FFF" stroke-width="0"/><rect width="80" height="32" x="152" y="48" fill="#FFF" stroke-width="0"/><rect width="80" height="32" x="24" y="176" fill="#FFF" stroke-width="0"/><rect width="80" height="32" x="152" y="176" fill="#FFF" stroke-width="0"/><text x="64" y="64" font-size="12" text-anchor="middle">original data</text><text x="192" y="64" font-size="12" text-anchor="middle">parity data</text><text x="64" y="192" font-size="12" text-anchor="middle">parity data</text><text x="192" y="192" font-size="12" text-anchor="middle">parity data</text><line x1="112" x2="128" y1="64" y2="64" stroke="#2344CA" stroke-width="8" marker-end="url(#arrowhead)"/><line x1="64" x2="64" y1="112" y2="128" stroke="#2344CA" stroke-width="8" marker-end="url(#arrowhead)"/><line x1="112" x2="128" y1="192" y2="192" stroke="#2344CA" stroke-width="8" marker-end="url(#arrowhead)"/></svg>