<svg xmlns="http://www.w3.org/2000/svg" xmlns:xlink="http://www.w3.org/1999/xlink" width="605pt" height="59pt" viewBox="0 0 605 59"><g id="graph0" class="graph" transform="scale(1 1) rotate(0) translate(4 55)"><title>G</title><polygon fill="#fff" stroke="transparent" points="-4 4 -4 -55 601 -55 601 4 -4 4"/><g id="node1" class="node"><title>share</title><polygon fill="none" stroke="#000" stroke-width="0" points="0 -.5 0 -50.5 597 -50.5 597 -.5 0 -.5"/><text x="8.5" y="-33.9" fill="#000" font-family="Times,serif" font-size="14" text-anchor="start">0</text><text x="124.5" y="-33.9" fill="#000" font-family="Times,serif" font-size="14" text-anchor="start">1</text><text x="209.5" y="-33.9" fill="#000" font-family="Times,serif" font-size="14" text-anchor="start">33</text><text x="269.5" y="-33.9" fill="#000" font-family="Times,serif" font-size="14" text-anchor="start">34</text><text x="368.5" y="-33.9" fill="#000" font-family="Times,serif" font-size="14" text-anchor="start">38</text><text x="568.5" y="-33.9" fill="#000" font-family="Times,serif" font-size="14" text-anchor="start">512</text><polygon fill="none" stroke="#000" points="8.5 -4.5 8.5 -30.5 124.5 -30.5 124.5 -4.5 8.5 -4.5"/><text x="13.441" y="-12.9" fill="#000" font-family="Times,serif" font-size="14" text-anchor="start">namespace version</text><polygon fill="none" stroke="#000" points="124.5 -4.5 124.5 -30.5 209.5 -30.5 209.5 -4.5 124.5 -4.5"/><text x="129.101" y="-12.9" fill="#000" font-family="Times,serif" font-size="14" text-anchor="start">namespace id</text><polygon fill="none" stroke="#000" points="209.5 -4.5 209.5 -30.5 269.5 -30.5 269.5 -4.5 209.5 -4.5"/><text x="214.422" y="-12.9" fill="#000" font-family="Times,serif" font-size="14" text-anchor="start">info byte</text><polygon fill="none" stroke="#000" points="269.5 -4.5 269.5 -30.5 368.5 -30.5 368.5 -4.5 269.5 -4.5"/><text x="274.101" y="-12.9" fill="#000" font-family="Times,serif" font-size="14" text-anchor="start">sequence length</text><polygon fill="none" stroke="#000" points="368.5 -4.5 368.5 -30.5 568.5 -30.5 568.5 -4.5 368.5 -4.5"/><text x="452.555" y="-12.9" fill="#000" font-family="Times,serif" font-size="14" text-anchor="start">blob1</text></g></g></svg>