<svg xmlns="http://www.w3.org/2000/svg" xmlns:xlink="http://www.w3.org/1999/xlink" width="808" height="59pt" viewBox="0 0 606 59"><g id="graph0" class="graph" transform="scale(1 1) rotate(0) translate(4 55)"><title>G</title><polygon fill="#fff" stroke="transparent" points="-4 4 -4 -55 602 -55 602 4 -4 4"/><g id="node1" class="node"><title>share</title><polygon fill="none" stroke="#000" stroke-width="0" points="0 -.5 0 -50.5 598 -50.5 598 -.5 0 -.5"/><text x="8" y="-33.9" fill="#000" font-family="Times,serif" font-size="14" text-anchor="start">0</text><text x="124" y="-33.9" fill="#000" font-family="Times,serif" font-size="14" text-anchor="start">1</text><text x="209" y="-33.9" fill="#000" font-family="Times,serif" font-size="14" text-anchor="start">33</text><text x="269" y="-33.9" fill="#000" font-family="Times,serif" font-size="14" text-anchor="start">34</text><text x="469" y="-33.9" fill="#000" font-family="Times,serif" font-size="14" text-anchor="start">200</text><text x="569" y="-33.9" fill="#000" font-family="Times,serif" font-size="14" text-anchor="start">512</text><polygon fill="none" stroke="#000" points="8 -4.5 8 -30.5 124 -30.5 124 -4.5 8 -4.5"/><text x="12.941" y="-12.9" fill="#000" font-family="Times,serif" font-size="14" text-anchor="start">namespace version</text><polygon fill="none" stroke="#000" points="124 -4.5 124 -30.5 209 -30.5 209 -4.5 124 -4.5"/><text x="128.601" y="-12.9" fill="#000" font-family="Times,serif" font-size="14" text-anchor="start">namespace id</text><polygon fill="none" stroke="#000" points="209 -4.5 209 -30.5 269 -30.5 269 -4.5 209 -4.5"/><text x="213.922" y="-12.9" fill="#000" font-family="Times,serif" font-size="14" text-anchor="start">info byte</text><polygon fill="none" stroke="#000" points="269 -4.5 269 -30.5 469 -30.5 469 -4.5 269 -4.5"/><text x="333.617" y="-12.9" fill="#000" font-family="Times,serif" font-size="14" text-anchor="start">end of blob1</text><polygon fill="none" stroke="#000" points="469 -4.5 469 -30.5 569 -30.5 569 -4.5 469 -4.5"/><text x="482.652" y="-12.9" fill="#000" font-family="Times,serif" font-size="14" text-anchor="start">zero padding</text></g></g></svg>