<svg xmlns="http://www.w3.org/2000/svg" xmlns:xlink="http://www.w3.org/1999/xlink" width="652" height="59pt" viewBox="0 0 489 59"><g id="graph0" class="graph" transform="scale(1 1) rotate(0) translate(4 55)"><title>G</title><polygon fill="#fff" stroke="transparent" points="-4 4 -4 -55 485 -55 485 4 -4 4"/><g id="node1" class="node"><title>share</title><polygon fill="none" stroke="#000" stroke-width="0" points="0 -.5 0 -50.5 481 -50.5 481 -.5 0 -.5"/><text x="8.5" y="-33.9" fill="#000" font-family="Times,serif" font-size="14" text-anchor="start">0</text><text x="93.5" y="-33.9" fill="#000" font-family="Times,serif" font-size="14" text-anchor="start">8</text><text x="153.5" y="-33.9" fill="#000" font-family="Times,serif" font-size="14" text-anchor="start">9</text><text x="252.5" y="-33.9" fill="#000" font-family="Times,serif" font-size="14" text-anchor="start">13</text><text x="452.5" y="-33.9" fill="#000" font-family="Times,serif" font-size="14" text-anchor="start">512</text><polygon fill="none" stroke="#000" points="8.5 -4.5 8.5 -30.5 93.5 -30.5 93.5 -4.5 8.5 -4.5"/><text x="13.101" y="-12.9" fill="#000" font-family="Times,serif" font-size="14" text-anchor="start">namespace id</text><polygon fill="none" stroke="#000" points="93.5 -4.5 93.5 -30.5 153.5 -30.5 153.5 -4.5 93.5 -4.5"/><text x="98.422" y="-12.9" fill="#000" font-family="Times,serif" font-size="14" text-anchor="start">info byte</text><polygon fill="none" stroke="#000" points="153.5 -4.5 153.5 -30.5 252.5 -30.5 252.5 -4.5 153.5 -4.5"/><text x="158.101" y="-12.9" fill="#000" font-family="Times,serif" font-size="14" text-anchor="start">sequence length</text><polygon fill="none" stroke="#000" points="252.5 -4.5 252.5 -30.5 452.5 -30.5 452.5 -4.5 252.5 -4.5"/><text x="337.332" y="-12.9" fill="#000" font-family="Times,serif" font-size="14" text-anchor="start">msg1</text></g></g></svg>